<?xml version="1.0" encoding="utf-8"?>
<!-- Generator: Adobe Illustrator 20.1.0, SVG Export Plug-In . SVG Version: 6.00 Build 0)  -->
<svg version="1.1" id="Capa_1" xmlns="http://www.w3.org/2000/svg" xmlns:xlink="http://www.w3.org/1999/xlink" x="0px" y="0px"
	 viewBox="0 0 359.8 227.1" style="enable-background:new 0 0 359.8 227.1;" xml:space="preserve">
<style type="text/css">
	.st0{fill:url(#SVGID_1_);}
	.st1{fill:url(#SVGID_2_);}
	.st2{fill:url(#SVGID_3_);}
	.st3{fill:url(#SVGID_4_);}
	.st4{fill:url(#SVGID_5_);}
	.st5{fill:#FFFFFF;}
	.st6{font-family:'Aquawax-Light';}
	.st7{font-size:46.1684px;}
</style>
<linearGradient id="SVGID_1_" gradientUnits="userSpaceOnUse" x1="112.1968" y1="34.8856" x2="159.7354" y2="34.8856">
	<stop  offset="0" style="stop-color:#91267C"/>
	<stop  offset="1" style="stop-color:#622A78"/>
</linearGradient>
<path class="st0" d="M159.7,1h-22c-2.2,0-4.4,0.3-6.6,1c-2.2,0.7-4.2,1.6-6,2.7s-3.5,2.5-5,4.2c-1.5,1.6-2.6,3.4-3.4,5.4l-4.6,10.5
	l18.2,44L159.7,1z"/>
<linearGradient id="SVGID_2_" gradientUnits="userSpaceOnUse" x1="93.9972" y1="75.706" x2="221.9806" y2="75.706">
	<stop  offset="0" style="stop-color:#91267C"/>
	<stop  offset="1" style="stop-color:#622A78"/>
</linearGradient>
<path class="st1" d="M200,1c-2.2,0-4.4,0.3-6.6,1c-2.2,0.7-4.2,1.6-6,2.7c-1.9,1.1-3.5,2.5-5,4.2c-1.5,1.6-2.6,3.4-3.4,5.4
	l-34.6,78.9c-0.6,1.2-1,2.3-1.3,3.5c-0.3,1.1-0.5,2.2-0.6,3.2c-0.2,1.1-0.3,2.2-0.3,3.2c0-1-0.1-2.1-0.3-3.2c-0.1-1-0.3-2-0.6-3.2
	c-0.3-1.1-0.7-2.3-1.1-3.5L130.3,69l0.1-0.2l-18.2-44l-0.2,0.5l18.9,47.2L112,25.3L94,66.7l18,43.8l0.9-2c-0.1,0.2-0.1,0.5-0.1,0.7
	c-0.1,0.3-0.1,1.1-0.1,2.2c0,0.2,0,0.5,0,0.8l5.8,14.1l-5.8-14.1c0,1,0.2,2.2,0.4,3.7c0.3,1.8,0.9,3.7,1.8,5.8l12.5,28.8h29.5L222,1
	H200z"/>
<linearGradient id="SVGID_3_" gradientUnits="userSpaceOnUse" x1="0" y1="75.706" x2="111.9552" y2="75.706">
	<stop  offset="0" style="stop-color:#91267C"/>
	<stop  offset="1" style="stop-color:#622A78"/>
</linearGradient>
<path class="st2" d="M82.5,93.2c-0.5,1.1-0.9,2.2-1.2,3.4c-0.3,1.1-0.6,2.2-0.8,3.2c-0.3,1.2-0.5,2.3-0.5,3.3
	c-0.1-1-0.2-2.2-0.5-3.3c-0.2-1-0.5-2-0.8-3.2c-0.3-1.1-0.7-2.3-1.2-3.4L42.9,14.2c-0.8-1.9-2-3.6-3.4-5.2c-1.4-1.6-3.1-3-4.9-4.2
	c-1.8-1.2-3.8-2.1-6-2.8c-2.2-0.7-4.4-1-6.7-1H0l65.2,149.4h29.6l17.2-39.9L94,66.7L82.5,93.2z"/>
<linearGradient id="SVGID_4_" gradientUnits="userSpaceOnUse" x1="199.8487" y1="73.4846" x2="279.204" y2="73.4846">
	<stop  offset="0" style="stop-color:#4C7C45"/>
	<stop  offset="1" style="stop-color:#B9C548"/>
</linearGradient>
<path class="st3" d="M279,99.8c-0.3-1.2-0.6-2.5-0.9-3.8c-0.3-1.4-0.7-2.6-1.2-3.7l-34-78.1c-0.8-1.9-2-3.6-3.5-5.2
	c-1.5-1.6-3.2-3-5.1-4.2c-1.9-1.2-3.9-2.2-6-2.8c-2.2-0.7-4.3-1-6.5-1h-22l63.3,145l16-44.9C279.1,100.7,279.1,100.3,279,99.8z"/>
<linearGradient id="SVGID_5_" gradientUnits="userSpaceOnUse" x1="263.1773" y1="75.706" x2="359.7905" y2="75.706">
	<stop  offset="0" style="stop-color:#4C7C45"/>
	<stop  offset="1" style="stop-color:#B9C548"/>
</linearGradient>
<path class="st4" d="M337.7,1c-2.3,0-4.5,0.3-6.6,0.9c-2.1,0.6-4.1,1.5-5.9,2.6c-1.8,1.1-3.4,2.5-4.9,4.2c-1.5,1.6-2.6,3.5-3.5,5.6
	l-34.3,78.3c-0.6,1.2-1,2.4-1.4,3.8c-0.3,1.3-0.6,2.6-0.8,3.8c-0.3,1.3-0.5,2.6-0.5,4c-0.1-1-0.3-1.9-0.5-2.9l-16,44.9l1.9,4.4h29.4
	L359.8,1H337.7z"/>
<g>
	<text transform="matrix(1 0 0 1 0.9141 218.1297)" class="st5 st6 st7">webdeviajes.club</text>
</g>
</svg>
